# xmcd CD database file
#
# Track frame offsets:
#	150
#	49957
#	76675
#	111175
#	151580
#	184880
#	203197
#	253830
#
# Disc length: 3889 seconds
#
# Revision: 0
# Processed by: cddbd v1.5.1PL0 Copyright (c) Steve Scherf et al.
# Submitted via: CDex 1.51
#
DISCID=620f2f08
DTITLE=Roscoe Mitchell - In Walked Buckner
DYEAR=1999
DGENRE=Jazz
TTITLE0=Off Shore
TTITLE1=In Walked Buckner
TTITLE2=Squeaky
TTITLE3=The Le Dreher Suite
TTITLE4=Three SIdes Of A Story
TTITLE5=Till Autumn
TTITLE6=Fly Over
TTITLE7=Opposite SIdes
EXTD=YEAR: 1999
EXTT0=
EXTT1=
EXTT2=
EXTT3=
EXTT4=
EXTT5=
EXTT6=
EXTT7=
PLAYORDER=
